<?xml version="1.0" standalone="no"?>
<!DOCTYPE svg PUBLIC "-//W3C//DTD SVG 20010904//EN"
 "http://www.w3.org/TR/2001/REC-SVG-20010904/DTD/svg10.dtd">
<svg version="1.0" xmlns="http://www.w3.org/2000/svg"
 width="512.000000pt" height="512.000000pt" viewBox="0 0 512.000000 512.000000"
 preserveAspectRatio="xMidYMid meet">
<metadata>
Created by potrace 1.15, written by Peter Selinger 2001-2017
</metadata>
<g transform="translate(0.000000,512.000000) scale(0.100000,-0.100000)"
fill="#000000" stroke="none">
<path d="M3535 5044 c-44 -7 -100 -16 -125 -19 -25 -3 -76 -10 -115 -15 -38
-6 -214 -31 -390 -55 -176 -25 -369 -52 -430 -60 -162 -24 -235 -34 -285 -40
-25 -3 -90 -13 -145 -21 -90 -13 -181 -26 -385 -54 -36 -5 -85 -12 -110 -15
-25 -3 -72 -10 -105 -15 -33 -5 -80 -12 -105 -15 -25 -3 -88 -12 -140 -20
-102 -15 -217 -31 -290 -40 -291 -38 -457 -111 -611 -271 -115 -120 -184 -249
-220 -417 -24 -108 -25 -298 -3 -447 16 -105 36 -247 59 -415 8 -60 22 -157
30 -215 9 -58 35 -249 60 -425 24 -176 49 -351 54 -390 6 -38 13 -90 16 -115
3 -25 10 -70 15 -100 5 -30 12 -80 15 -110 3 -30 10 -80 15 -110 5 -30 12 -77
15 -105 4 -27 10 -75 15 -105 6 -30 17 -109 25 -175 16 -120 18 -137 35 -250
5 -33 12 -82 15 -110 37 -313 144 -523 340 -671 151 -114 327 -173 530 -179
105 -3 165 2 350 29 17 3 116 16 220 31 105 14 233 32 285 40 107 16 307 44
360 51 61 8 182 25 280 39 114 16 229 32 290 40 25 3 72 10 105 15 33 5 80 12
105 15 25 3 88 12 140 20 89 13 200 28 280 39 38 5 180 25 220 31 14 2 93 13
175 25 83 11 185 27 228 35 349 66 596 298 683 640 21 86 25 120 23 245 -1 80
-7 183 -14 230 -7 47 -20 139 -29 205 -10 66 -24 163 -31 215 -8 52 -17 115
-20 140 -9 70 -25 186 -40 290 -8 52 -28 196 -45 320 -17 124 -42 304 -56 400
-14 96 -27 193 -30 215 -3 22 -9 67 -14 100 -5 33 -12 80 -15 105 -3 25 -12
88 -20 140 -15 100 -31 215 -40 290 -3 25 -10 72 -15 105 -5 33 -12 80 -15
105 -34 264 -101 421 -239 567 -128 135 -244 203 -425 249 -80 20 -116 24
-245 23 -83 -1 -187 -7 -231 -15z m430 -108 c191 -50 373 -191 478 -368 76
-128 74 -119 217 -1138 33 -239 67 -480 75 -535 8 -55 47 -327 85 -605 39
-278 82 -583 95 -678 29 -201 31 -284 9 -390 -54 -266 -250 -490 -505 -579
-72 -25 -140 -36 -724 -117 -176 -25 -754 -107 -1285 -182 -1060 -150 -1107
-154 -1252 -115 -88 23 -200 76 -270 127 -121 89 -239 259 -282 404 -9 30 -48
280 -87 555 -38 275 -122 869 -185 1320 -63 451 -124 885 -136 965 -34 241
-15 380 74 553 44 84 146 202 226 261 65 47 176 101 247 120 33 9 285 47 560
86 275 39 689 97 920 130 231 32 616 86 855 120 239 33 476 67 525 75 108 17
275 13 360 -9z"/>
<path d="M2915 4450 c-418 -59 -1039 -147 -1380 -194 -341 -48 -647 -94 -680
-102 -145 -36 -261 -167 -279 -317 -5 -39 28 -298 138 -1082 80 -566 170
-1210 201 -1430 30 -220 64 -429 75 -465 47 -153 190 -260 347 -260 32 0 252
27 488 60 237 34 799 113 1250 176 451 63 900 126 997 140 97 13 196 31 219
40 139 48 231 163 253 315 5 34 -42 391 -179 1370 -241 1721 -220 1582 -255
1655 -36 74 -100 136 -178 172 -104 49 -157 45 -1017 -78z m-184 -612 c58 -17
113 -70 156 -148 42 -80 33 -77 173 -55 52 8 113 15 136 15 108 0 218 -80 248
-181 16 -53 146 -958 146 -1016 0 -84 -72 -193 -154 -231 -34 -16 -215 -45
-795 -127 -414 -58 -762 -105 -775 -105 -48 0 -125 31 -167 69 -77 67 -82 86
-154 601 -36 256 -66 491 -66 524 0 43 7 73 26 112 50 101 114 137 296 162
l133 18 18 84 c11 47 30 102 43 122 47 71 81 82 385 126 325 47 303 45 351 30z
m994 -1928 c6 -44 9 -49 25 -40 21 11 70 13 95 4 23 -9 42 -51 50 -111 4 -34
12 -53 20 -53 18 0 30 -39 16 -53 -14 -14 -97 -25 -115 -15 -20 11 -21 44 -2
55 10 6 12 20 6 56 -9 59 -20 73 -49 58 -17 -10 -21 -21 -21 -65 0 -45 3 -54
20 -59 29 -8 27 -55 -2 -61 -73 -15 -88 -15 -103 0 -19 19 -19 23 0 44 24 26
0 191 -32 226 -36 39 -18 60 54 63 30 1 31 -1 38 -49z m-161 -98 c13 -47 -2
-59 -52 -43 -42 14 -84 12 -89 -5 -2 -7 21 -13 62 -17 78 -7 103 -19 111 -54
16 -63 -39 -113 -124 -113 -24 0 -51 -4 -61 -9 -25 -14 -39 0 -47 46 -5 36 -4
42 16 48 13 4 28 1 38 -8 25 -23 67 -30 92 -17 31 17 14 28 -53 35 -71 6 -95
18 -107 51 -22 57 27 104 110 106 28 1 53 5 56 10 12 19 39 2 48 -30z m-704
23 c0 -10 31 -221 35 -242 4 -19 11 -22 41 -20 25 1 40 -3 47 -15 21 -32 -10
-47 -121 -60 -89 -10 -105 -10 -113 3 -16 25 -5 43 34 52 42 10 42 8 24 132
-11 72 -14 80 -33 77 -50 -7 -58 59 -9 69 37 8 95 11 95 4z m385 -69 c12 -17
34 -110 35 -143 0 -2 6 -3 14 -3 16 0 28 -24 20 -44 -6 -17 -64 -30 -76 -18
-5 5 -25 1 -46 -9 -40 -21 -93 -25 -122 -9 -10 5 -23 23 -29 40 -21 61 21 108
104 118 27 3 45 10 45 17 0 24 -32 25 -75 4 -50 -25 -78 -20 -73 13 4 33 61
58 130 58 50 0 60 -3 73 -24z m-617 -76 c70 -43 78 -136 17 -197 -28 -28 -40
-33 -79 -33 -39 0 -46 -3 -46 -19 0 -15 8 -21 33 -23 26 -2 33 -8 35 -30 4
-32 -12 -38 -109 -41 -60 -2 -64 -1 -67 21 -3 17 2 25 17 29 24 6 24 6 11 93
-19 121 -21 130 -34 130 -16 0 -27 33 -16 50 4 7 30 13 57 15 28 1 59 7 69 13
29 17 76 14 112 -8z m-303 -51 c5 -22 3 -36 -8 -46 -13 -13 -18 -13 -45 1 -38
20 -66 20 -81 3 -17 -21 -3 -27 59 -27 73 0 110 -25 110 -75 0 -48 -43 -82
-117 -90 -106 -13 -105 -13 -115 24 -5 18 -7 40 -4 47 7 19 50 18 66 -1 15
-19 74 -20 89 -2 17 21 3 27 -59 27 -74 0 -110 25 -110 76 0 57 27 74 135 87
71 9 73 8 80 -24z m-579 -11 c4 -14 1 -25 -10 -33 -14 -11 -15 -21 -5 -88 14
-94 6 -142 -26 -163 -62 -41 -161 -35 -191 10 -8 13 -20 62 -27 109 -9 68 -15
87 -29 90 -27 8 -24 55 5 62 85 21 141 -2 104 -42 -14 -16 -15 -28 -6 -88 14
-86 23 -105 53 -105 41 0 49 22 42 107 -6 61 -11 80 -27 91 -27 19 -21 54 11
63 14 4 42 7 62 8 29 1 38 -3 44 -21z m239 -14 c23 -9 43 -53 51 -112 4 -33
11 -52 20 -52 19 0 28 -40 13 -55 -8 -7 -36 -15 -63 -17 -59 -4 -82 18 -53 50
12 13 16 29 12 46 -3 14 -7 38 -10 52 -5 21 -11 25 -33 22 -25 -3 -27 -7 -30
-55 -3 -44 0 -53 17 -63 29 -15 28 -58 -1 -64 -13 -3 -35 -7 -50 -10 -14 -3
-34 -3 -42 0 -18 7 -21 45 -5 61 16 16 2 113 -16 113 -20 0 -29 38 -14 56 8
10 27 14 53 13 23 -2 50 2 61 9 22 13 64 15 90 6z"/>
<path d="M2441 3269 c-167 -33 -311 -171 -356 -344 -54 -207 48 -421 247 -520
69 -33 88 -38 171 -43 181 -9 321 62 418 210 53 83 73 166 67 278 -5 79 -10
101 -43 166 -94 192 -298 294 -504 253z m186 -164 c66 -20 148 -93 179 -160
33 -70 33 -180 0 -250 -29 -63 -111 -138 -173 -159 -114 -39 -228 -12 -315 74
-62 62 -88 124 -88 209 0 204 197 345 397 286z"/>
</g>
</svg>
